<svg xmlns="http://www.w3.org/2000/svg" width="781.5" height="1144" viewBox="0 0 781.5 1144">
  <defs>
    <style>
      .cls-1 {
        fill-rule: evenodd;
      }
    </style>
  </defs>
  <path id="smallDroplets_copie" data-name="smallDroplets copie" class="cls-1" d="M2386.11,1371.35c-1.2,3.53-5.61,7.44-10.92,9.25a107.292,107.292,0,0,1-15.86,4.19c-3.29.42-11.13,1.48-14.82,1.2a9.994,9.994,0,0,1-6.15-3.48,1.252,1.252,0,0,1,.61-0.8s9.71-1.06,17.26-4.36,9.79-4.89,11.9-7.25,4.52-4.71,7.08-5.9,5.43-1.75,7.8-.3S2387.31,1367.81,2386.11,1371.35ZM2354,1236H2086.47c-0.42-10.51-1.07-26.55-1.81-45H2301a19,19,0,0,0,19-19V879a19,19,0,0,0-19-19H2121.52c-1.65-10.873-3.98-24.266-6.52-33-0.66-2.255-1.46-5.346-2.36-9H2354a23,23,0,0,1,23,23v372A23,23,0,0,1,2354,1236Zm6-251a6,6,0,0,0-6-6h-18a6,6,0,0,0-6,6v84a6,6,0,0,0,6,6h18a6,6,0,0,0,6-6V985ZM2209,785s-13.02-28.62-22-49-17-45-17-45,41.06-19.457,88-42,104-40,104-40-44.71,61.957-78,99C2266.54,727.429,2209,785,2209,785Zm-1-183s-15.04-20.95-35-45-35-43-35-43,28.17,1.391,50,6a130.986,130.986,0,0,1,37,14,193.352,193.352,0,0,1-4,32C2217.32,583.422,2208,602,2208,602Zm-67,13c-0.44,11.569-2.26,20.637-5.03,28.449A126.5,126.5,0,0,1,2128,660c-6.65,11.978-14.34,21.548-20,26a79.035,79.035,0,0,1-9,6c-6.62,3.857-11.25,5.532-16,11a37.628,37.628,0,0,0-6,10,55.664,55.664,0,0,0-4,24c0.39,10.044,6.26,36.153,8,49s7.52,42.248,10,58a278.946,278.946,0,0,1,3,29s-18.58,18.314-27,44-10.09,34.851-11,48l0.11,2.625A8.008,8.008,0,0,1,2061,975v5a7.987,7.987,0,0,1-4.12,6.994L2057,990l2.59,60.08H1935.04l2.92-62.682A8,8,0,0,1,1933,980v-5a8,8,0,0,1,5.89-7.71L1939,965c0.07-1.484.1-3.639,0-6-0.15-3.732-1.63-10.3-5-17a52.754,52.754,0,0,0-19-21,88.821,88.821,0,0,0-10-5s-6.34-1.348-7-4,0.28-5.932,1-8c0.83-2.377,46-134,46-134l59-166s6.25-28.848,32-51,42.96-17.726,51-17c7.42,0.67,30.23,13.6,39,28S2141.78,594.424,2141,615ZM1931.6,862a14.4,14.4,0,1,0,14.4-14.4A14.4,14.4,0,0,0,1931.6,862Zm19-51a14.4,14.4,0,1,0,14.4-14.4A14.4,14.4,0,0,0,1950.6,811Zm17-49a14.4,14.4,0,1,0,14.4-14.4A14.4,14.4,0,0,0,1967.6,762Zm17-50a14.4,14.4,0,1,0,14.4-14.4A14.4,14.4,0,0,0,1984.6,712Zm31.4-64.4a14.4,14.4,0,1,0,14.4,14.4A14.4,14.4,0,0,0,2016,647.6Zm19.5-48a14.4,14.4,0,1,0,14.4,14.4A14.4,14.4,0,0,0,2035.5,599.6ZM2050.76,972H1943.24a5.5,5.5,0,1,0,0,11h107.52A5.5,5.5,0,0,0,2050.76,972ZM2036,622a8.5,8.5,0,1,1,8.5-8.5A8.5,8.5,0,0,1,2036,622Zm-20,48a8.5,8.5,0,1,1,8.5-8.5A8.5,8.5,0,0,1,2016,670Zm-17,50a8.5,8.5,0,1,1,8.5-8.5A8.5,8.5,0,0,1,1999,720Zm-17,51a8.5,8.5,0,1,1,8.5-8.5A8.5,8.5,0,0,1,1982,771Zm-17,49a8.5,8.5,0,1,1,8.5-8.5A8.5,8.5,0,0,1,1965,820Zm-19,51a8.5,8.5,0,1,1,8.5-8.5A8.5,8.5,0,0,1,1946,871Zm16-369c6-31.281,12.25-61.871,19-93,7.59-35.022,15.48-69.193,24-104,12.52,33.62,23.46,67.421,33,102,8.6,31.186,15.87,62.23,22,94,0,0-27.05,6.68-50,7S1962,502,1962,502Zm3.56,85.638c5.44-13.486,15.63-18.053,15.63-18.053l15.11,4.149,0.06,16.816,3.73,0.944-5.12,14.738-3.53-1.535a0.317,0.317,0,0,1-.02.033l-10.75,13.087-14.28-6.016A28.949,28.949,0,0,1,1965.56,587.638Zm12.33,37.642,0.06,16.816,4.19,1.06-5.15,14.809-3.96-1.722a0.223,0.223,0,0,1-.02.033l-10.75,13.087-14.28-6.016a28.947,28.947,0,0,1-.83-24.162c5.44-13.487,15.63-18.053,15.63-18.053Zm-18.35,68.362,4.64,1.176-5.17,14.881-4.39-1.91a0.223,0.223,0,0,1-.02.033l-10.75,13.087-14.28-6.016a28.947,28.947,0,0,1-.83-24.162c5.44-13.487,15.63-18.053,15.63-18.053l15.11,4.149ZM1942,724.691l0.05,16.815,5.43,1.375-5.21,15.006-5.13-2.233a0.259,0.259,0,0,0-.03.033l-10.75,13.087-14.27-6.016a28.928,28.928,0,0,1-.84-24.163c5.44-13.486,15.63-18.053,15.63-18.053Zm-14.73,51.546,0.06,16.816,2.5,0.633-5.06,14.542-2.36-1.028a0.259,0.259,0,0,0-.03.033l-10.74,13.087-14.28-6.016a28.928,28.928,0,0,1-.84-24.163c5.44-13.486,15.64-18.053,15.64-18.053Zm-18.35,64.68,4.13,1.046-5.15,14.8-3.9-1.7a0.382,0.382,0,0,0-.03.033l-10.74,13.087-14.28-6.016a28.97,28.97,0,0,1-.84-24.162c5.44-13.487,15.64-18.053,15.64-18.053l15.11,4.148ZM1820.74,605.8s-5.53-21.762-7.1-41.153-1.02-41.424-1.02-41.424a143.859,143.859,0,0,1,69.07-4.726c-10.7,14.828-21.13,29.527-31.59,44.524C1840.16,577.271,1830.47,591.4,1820.74,605.8ZM1829,734a323.108,323.108,0,0,1-14,39s-21.55-12.2-35-21-39.36-26.786-55-40-56.87-59.437-56.78-59.744c0,0,51.29,5.768,78.78,11.744a506.032,506.032,0,0,1,91,29A324.432,324.432,0,0,1,1829,734Zm42,86a37.9,37.9,0,0,0-7,12,39.376,39.376,0,0,0-2,8,92.405,92.405,0,0,0,0,12c0.17,2.682.48,5.348,0.89,8H1728a19,19,0,0,0-19,19v293a19,19,0,0,0,19,19h184l-2,44-0.07,1H1628a23,23,0,0,1-23-23V841a23,23,0,0,1,23-23h244.96C1872.25,818.67,1871.57,819.35,1871,820Zm-191,43a4,4,0,0,0-4-4h-34a4,4,0,0,0-4,4v14a4,4,0,0,0,4,4h34a4,4,0,0,0,4-4V863Zm0,30a4,4,0,0,0-4-4h-34a4,4,0,0,0-4,4v14a4,4,0,0,0,4,4h34a4,4,0,0,0,4-4V893Zm0,30a4,4,0,0,0-4-4h-34a4,4,0,0,0-4,4v14a4,4,0,0,0,4,4h34a4,4,0,0,0,4-4V923Zm0,30a4,4,0,0,0-4-4h-34a4,4,0,0,0-4,4v14a4,4,0,0,0,4,4h34a4,4,0,0,0,4-4V953Zm0,43c0-9.941-9.4-18-21-18s-21,8.059-21,18v60c0,9.94,9.4,18,21,18s21-8.06,21-18V996Zm0,91a4,4,0,0,0-4-4h-34a4,4,0,0,0-4,4v14a4,4,0,0,0,4,4h34a4,4,0,0,0,4-4v-14Zm0,30a4,4,0,0,0-4-4h-34a4,4,0,0,0-4,4v14a4,4,0,0,0,4,4h34a4,4,0,0,0,4-4v-14Zm0,30a4,4,0,0,0-4-4h-34a4,4,0,0,0-4,4v14a4,4,0,0,0,4,4h34a4,4,0,0,0,4-4v-14Zm0,30a4,4,0,0,0-4-4h-34a4,4,0,0,0-4,4v14a4,4,0,0,0,4,4h34a4,4,0,0,0,4-4v-14Zm-5,15h-32a2.006,2.006,0,0,1-2-2v-12a2.006,2.006,0,0,1,2-2h32a2.006,2.006,0,0,1,2,2v12A2.006,2.006,0,0,1,1675,1192Zm0-30h-32a2.006,2.006,0,0,1-2-2v-12a2.006,2.006,0,0,1,2-2h32a2.006,2.006,0,0,1,2,2v12A2.006,2.006,0,0,1,1675,1162Zm0-30h-32a2.006,2.006,0,0,1-2-2v-12a2.006,2.006,0,0,1,2-2h32a2.006,2.006,0,0,1,2,2v12A2.006,2.006,0,0,1,1675,1132Zm0-30h-32a2.006,2.006,0,0,1-2-2v-12a2.006,2.006,0,0,1,2-2h32a2.006,2.006,0,0,1,2,2v12A2.006,2.006,0,0,1,1675,1102Zm-16-31c-9.94,0-18-7.56-18-16.88V1029h36v25.12C1677,1063.44,1668.94,1071,1659,1071Zm-18-73.125c0-9.32,8.06-16.875,18-16.875s18,7.555,18,16.875V1026h-36V997.875ZM1675,968h-32a2,2,0,0,1-2-2V954a2,2,0,0,1,2-2h32a2,2,0,0,1,2,2v12A2,2,0,0,1,1675,968Zm0-30h-32a2,2,0,0,1-2-2V924a2,2,0,0,1,2-2h32a2,2,0,0,1,2,2v12A2,2,0,0,1,1675,938Zm0-30h-32a2,2,0,0,1-2-2V894a2,2,0,0,1,2-2h32a2,2,0,0,1,2,2v12A2,2,0,0,1,1675,908Zm0-30h-32a2,2,0,0,1-2-2V864a2,2,0,0,1,2-2h32a2,2,0,0,1,2,2v12A2,2,0,0,1,1675,878Zm-57,470c4.12-.2,4.29,3.01,9,8s8,8,8,8,0.87,1.01,0,1c-0.57-.01-1,0-1,0l-7,1s-6.17.78-8,1c-2,.24-8.03-0.88-9-2-2.75-3.17-2.84-6.15-1-11S1613.88,1348.2,1618,1348Zm15,52c1.45-1.15,5.19-.43,7,2,2.34,3.14-.02,5.24-1,6-1.49,1.15-5.43.22-7-2A4.59,4.59,0,0,1,1633,1400Zm9-95c1.23-3.43,3.69-5.14,7-4s4.84,3.94,5,11a22.853,22.853,0,0,1-1,8,6.071,6.071,0,0,1-6,3c-3.13-.19-5.12-1.87-6-6A22.75,22.75,0,0,1,1642,1305Zm50.19,91.27c10.56,1.67,11.14,12.26,23.78,28.92s34.8,17.86,34.8,17.86,1.44,0.75-.81,2.08-8.51.8-20,.86c-11.35.05-23.14-3.35-35.78-6.72s-18.83-9.32-20.68-17.16,1.26-15.07,3.31-18.38S1681.63,1394.6,1692.19,1396.27ZM1737,1327c-7.24,1.58-12.14-1.69-17-2s-7.66-.2-14,6-7,16-7,16-5.24-7.24-6-9a29.242,29.242,0,0,1-2-9,49.094,49.094,0,0,1,1-13c0.97-5.38,4.64-12.41,8-18s8.89-10.15,13.18-12.88c4.47-2.84,13.39-4.1,18.82-4.12,6.05-.02,9.85,1.12,15,5s7.4,8.72,8,15-2.08,12.61-4,17S1744.24,1325.42,1737,1327Zm14,52c1.02-12.93,8.78-24.42,19-30,3.5-1.91,12.9-6.32,17.68-2.41,2.81,2.3,3.66,7.11,2.14,14.95-3.06,15.75-14.45,20.28-16.56,32.57-1.99,11.57,5.25,24.07,18.74,36.89a0.135,0.135,0,0,1,.05.12c-0.15.38-5.64-1.18-10.05-3.12-11.48-5.06-19.92-15.07-25-25S1750.66,1383.36,1751,1379Zm66-1c5.49-.6,13.52,1.69,24,10s15.62,16,18,24c0.38,1.29.66,2.27,0.87,3.05L1806,1436l6.52-56.83C1813.12,1378.76,1814.37,1378.29,1817,1378Zm60-450c1.83,1.025,19.94,8.9,27,15s14.56,15.19,15,18c0.06,0.379.1,1.047,0.14,1.934-2.78.875-5.04,10.117-5.14,14.066-0.12,4.8,1.37,11.8,3,13,0.66,0.488,1.35,1.846,2,2-0.01.736,0.01,0.317,0,1-0.1,10.84-5,154-5,154l-1.73,38H1728a13,13,0,0,1-13-13V879a13,13,0,0,1,13-13h136a21.506,21.506,0,0,0,8,11q5.475,2.735,10.94,5.469C1877.22,898.031,1871,915,1871,915s-0.99,4.246,0,7S1875.17,926.974,1877,928Zm-31,458c-9.54-8.25-15.72-11.51-22-12s-9-.34-11,1l131.72-143.93A24.585,24.585,0,0,1,1957,1231c8.35,2.14,17.9,11.23,22,17,3.67,5.17,7.61,11.78,8.74,17.31l-124.27,145.62C1861.49,1406.99,1854.14,1393.04,1846,1386Zm18-50a20.276,20.276,0,0,1,7,4l61-65a19.31,19.31,0,0,0-7-5,10.592,10.592,0,0,0-8,0l-61,65S1858.51,1334.13,1864,1336Zm8,102c9.87-2.9,19.59-7.53,27-14a37.81,37.81,0,0,0,8-9,30.289,30.289,0,0,0,4-13c0.26-3.98-1.4-8.16,0-13a18.8,18.8,0,0,1,9-11c2.91-1.6,9.98-4.92,16-1,4.64,3.02,10.51,9.98,9,19a47.244,47.244,0,0,1-15,28c-9.76,9.02-23.8,13.75-31,15s-20.34,1.6-24,1S1871.06,1438.43,1872,1438Zm322-474s11.23-7.33,15-9c3.51-1.556,11.85-2.079,17,4s4.96,11.163,4,14-9,17-9,17-1.13-13.09-8-20S2194,964,2194,964Zm-125.67,288.94h-42.84l40.75-48.41Zm0.23,5.34,0.64,14.85A118.539,118.539,0,0,0,2034,1308c-0.88,1.34-1.72,2.68-2.53,4h-55.7l45.23-53.72h47.56ZM1982,1385l-27.73-15h46.49c-0.24.28-.46,0.54-0.66,0.76Zm-46.5-25.16,36.06-42.84h56.99a148.265,148.265,0,0,0-8.5,17.94l-0.05.06s-5.11,11.76-9,20a61.214,61.214,0,0,1-6.25,10h-59.71ZM2186,969c2.91-1.522,12.49-3.31,22,4a23.683,23.683,0,0,1,9,21,10.143,10.143,0,0,1-2,5l-222.84,261.13A48.389,48.389,0,0,0,1982,1241c-6.16-6.97-15.15-13.21-18-14-6.03-1.68-10.99-1.87-14.55-1.09L2180,974S2183.74,970.178,2186,969Zm-126.18,86.42,0.76,17.63-42.25,48.21h-86.6l3.06-65.84h125.03Zm-131.56,140.57h24.56l-25.94,29.61Zm85.39-69.4-56.15,64.07h-29l2.98-64.07h82.17ZM2124,878s-0.59-4.949-1.6-12H2301a13,13,0,0,1,13,13v293a13,13,0,0,1-13,13H2084.42c-0.03-.69-0.06-1.38-0.09-2.08,14.73-18,73.77-90.14,80.67-97.92,7.89-8.9,60.36-75.95,68-87s12.69-24.53,14-32-1.62-19.662-12-24-16.44-4.6-31,0-26,15-26,15l-98.71,96.96c-0.14-4.15-.25-7.24-0.29-8.96-0.26-10.28-1.94-31.05-1.91-52.95-1.62-.039,5.99-2.678,5.91-13.05-0.06-7.082-.45-14-5-16a116.587,116.587,0,0,1,5-24c9.9-31.482,30.18-51.664,37-57C2128.19,875.59,2124,878,2124,878Zm-189.76,558.05A243.144,243.144,0,0,0,1980,1414c16.99-10.52,32.52-24.05,38-31,5.71-7.25,11.74-17.65,17-30,2.74-6.42,5.68-17.82,11-27,5.34-9.22,13.15-18.95,25-29,14.01-11.88,28.01-18.89,38-22,10.27-3.2,22.87-5.14,39-4,23.31,1.64,40.95,10.73,46.97,16.02A63.4,63.4,0,0,1,2200,1292c11.31,12.45,20.26,31.99,21,64,0.43,18.88-4.27,33.99-8.33,40.44A57.933,57.933,0,0,1,2198,1412c-6.39,4.73-26.27,12.39-51,12-24.69-.39-40.43-7.66-44-13-5.48-8.19-5.34-18.61-3-26a31.219,31.219,0,0,1,8-13,39.361,39.361,0,0,1,26-11,36.175,36.175,0,0,1,20,5,35.134,35.134,0,0,1,13,14c0.35,1.35.68,2.66,1,4,0.33,1.37.7,2.62,1,4,0.72,3.28,1.01,5.58,3,7a7.018,7.018,0,0,0,5,1c2.66-.32,5.31-1.83,8-5,2.9-3.41,15.13-20.89,12-44a59.392,59.392,0,0,0-12-29c-8.07-10.23-19.99-17.61-34-21-12.05-2.91-28.01-2.79-49,7a83.817,83.817,0,0,0-30,23c-12.24,15.16-15.71,34.63-21,45a123.774,123.774,0,0,1-27,35c-7.24,6.58-26.59,18.62-47,27-25.29,10.39-49.48,14.8-65,15-3.22.04-6.47-.02-9.71-0.2A143.616,143.616,0,0,1,1886,1447a190.388,190.388,0,0,0,24.53-3.91A202.5,202.5,0,0,0,1934.24,1436.05ZM2067,1404c3.03-1.09,4,2,4,2a25.108,25.108,0,0,0,22,33,1.975,1.975,0,0,1,2,1,1.564,1.564,0,0,1-.05,1.14A3.674,3.674,0,0,1,2093,1443a21.854,21.854,0,0,1-2,1c-1.58.55-17.98,3.75-33,0-11.85-2.96-12.39-12.47-9-23S2063.97,1405.09,2067,1404Zm157.27,33.51s20.43-6.59,34.32-16.49,21.21-15.56,25.64-21.15,9.8-8.77,13.71-9.01c5.59-.33,14.32.72,17.65,5.33s3.87,15.33,3.87,15.33-1.39,7.57-3.96,12.74-6.51,7.8-10.79,10.23-13.4,3.93-21.46,5.42-22.19,1.8-30.21,1.75-22.96-1.49-25.93-1.93c-0.38-.06-3.71-0.87-3.92-1.3C2222.89,1437.8,2224.27,1437.51,2224.27,1437.51ZM2225,1281c-2.55-2.47-6.44-5.58-7-12s1.54-8.76,4-13a15.02,15.02,0,0,1,12-8c5.88-.63,11.27,3.13,13,6a34.369,34.369,0,0,1,4,15c0.02,5.55-1.53,13.06-3,21s-8.46,23.41-9,24a3.534,3.534,0,0,1-3,1c-1.31-.19-1-2-1-2s-2.8-14.38-4-19C2229.83,1289.48,2227.83,1283.74,2225,1281Zm91,33c-12.95,14.34-29.76,29.62-45,39-15.14,9.32-23.87,15.02-26,13-3.18-3.03,11.35-21.66,17-38,2.17-6.27,9.27-33.66,15-45,3.75-7.43,5.46-15.66,25-16s22.47,20.3,22,25C2323.19,1300.08,2322.72,1306.56,2316,1314Zm26-28c0.11-1.71,1.84-8.15,6-7s6.26,3.21,6,6-1.16,5.68-4,7-5.13,2.44-7,1C2341.67,1291.98,2341.89,1287.71,2342,1286Zm-12,45c5.01-6.49,8.75-5.86,11-4s5.04,6.82,4,10-2.82,6.58-7,7a9.172,9.172,0,0,1-9-5C2328.52,1337.94,2327.78,1333.88,2330,1331Z" transform="translate(-1605 -305)"/>
</svg>
